<svg width="24" height="24" viewBox="0 0 24 24" fill="none" xmlns="http://www.w3.org/2000/svg">
<path d="M10.9989 2.99072C8.7898 2.99072 6.9989 4.78172 6.9989 6.99072H5.9989C3.7898 6.99072 1.9989 8.78172 1.9989 10.9907V16.9907C1.9989 19.1997 3.7898 20.9907 5.9989 20.9907H17.9989C20.208 20.9907 21.9989 19.1997 21.9989 16.9907V10.9907C21.9989 8.78172 20.208 6.99072 17.9989 6.99072H16.9989C16.9989 4.78172 15.208 2.99072 12.9989 2.99072H10.9989ZM10.9989 4.99072H12.9989C14.1035 4.99072 14.9989 5.88572 14.9989 6.99072H8.9989C8.9989 5.88572 9.8943 4.99072 10.9989 4.99072ZM5.9989 8.99072H17.9989C19.1035 8.99072 19.9989 9.88572 19.9989 10.9907V11.2717L14.6551 13.0527C13.2201 13.5317 10.7777 13.5317 9.3427 13.0527L3.9989 11.2717V10.9907C3.9989 9.88572 4.8943 8.99072 5.9989 8.99072ZM3.9989 13.3657L8.7177 14.9597C10.5632 15.5747 13.4346 15.5747 15.2801 14.9597L19.9989 13.3657V16.9907C19.9989 18.0957 19.1035 18.9907 17.9989 18.9907H5.9989C4.8943 18.9907 3.9989 18.0957 3.9989 16.9907V13.3657Z" fill="black"/>
</svg>
