<svg width="24" height="24" viewBox="0 0 24 24" fill="none" xmlns="http://www.w3.org/2000/svg">
<path d="M5.99907 2.99072C5.95007 2.99072 5.72807 3.02773 5.65507 3.05373C5.39507 3.14473 5.19906 3.32073 5.09306 3.55373L2.18406 9.38572C2.18406 9.38572 2.00607 9.62672 1.99907 9.99372C1.99207 10.3607 2.26207 10.6537 2.26207 10.6537L11.2181 21.6237C11.6181 22.1127 12.3801 22.1127 12.7801 21.6237C13.0591 21.2827 21.7711 10.6047 21.7711 10.6047C21.7711 10.6047 21.9931 10.3227 21.9991 9.99372C22.0061 9.66472 21.8311 9.43174 21.8311 9.43174L18.9051 3.55373C18.7991 3.32073 18.6031 3.14473 18.3431 3.05373C18.2701 3.02773 18.0491 2.99072 17.9991 2.99072H5.99907ZM7.40507 4.99173H16.5931L15.1871 8.99372H8.81205L7.40507 4.99173ZM5.84306 6.55472L6.71806 8.99372H4.62407L5.84306 6.55472ZM18.1551 6.55472L19.3741 8.99372H17.2801L18.1551 6.55472ZM5.12407 10.9937H7.40507L9.15507 15.9337L5.12407 10.9937ZM9.53007 10.9937H14.4681L11.9991 17.9977L9.53007 10.9937ZM16.5931 10.9937H18.8741C17.9161 12.1647 16.5261 13.8797 14.8431 15.9337L16.5931 10.9937Z" fill="black"/>
</svg>
