<svg width="24" height="24" viewBox="0 0 24 24" fill="none" xmlns="http://www.w3.org/2000/svg">
<path d="M11.9989 2.01416C8.6339 2.01416 5.6929 4.19216 4.5639 7.04916C3.1279 7.22216 1.9989 8.52915 1.9989 10.0141V14.0141C1.9989 15.6711 3.3419 17.0141 4.9989 17.0141C6.6559 17.0141 7.9989 15.6711 7.9989 14.0141V10.0141C7.9989 8.95315 7.39491 7.97614 6.56491 7.44314C7.46791 5.48314 9.5749 4.01416 11.9989 4.01416C14.4289 4.01416 16.4809 5.42216 17.4179 7.45016C16.5699 7.99116 15.9989 8.96815 15.9989 10.0141V14.0141C15.9989 14.6501 16.2459 15.3551 16.6169 15.8451C15.9899 16.5821 15.3299 17.0851 14.5579 17.4551C13.9959 16.5561 13.0449 16.0141 11.9989 16.0141C10.3419 16.0141 8.9989 17.3571 8.9989 19.0141C8.9989 20.6711 10.3419 22.0141 11.9989 22.0141C13.5089 22.0141 14.7499 20.8941 14.9599 19.4421C16.1309 19.0021 17.4099 18.1291 18.3079 16.9261C18.5469 16.9861 18.7419 17.0141 18.9989 17.0141C20.6559 17.0141 21.9989 15.6711 21.9989 14.0141V10.0141C21.9989 8.51415 20.8669 7.26316 19.4289 7.04116C18.2489 4.09616 15.3449 2.01416 11.9989 2.01416ZM4.9989 9.01415C5.5509 9.01415 5.9989 9.46215 5.9989 10.0141V14.0141C5.9989 14.5661 5.5509 15.0141 4.9989 15.0141C4.4469 15.0141 3.9989 14.5661 3.9989 14.0141V10.0141C3.9989 9.46215 4.4469 9.01415 4.9989 9.01415ZM18.9989 9.01415C19.5509 9.01415 19.9989 9.46215 19.9989 10.0141V14.0141C19.9989 14.5661 19.5509 15.0141 18.9989 15.0141C18.4469 15.0141 17.9989 14.5661 17.9989 14.0141V10.0141C17.9989 9.46215 18.4469 9.01415 18.9989 9.01415ZM11.9989 18.0141C12.5509 18.0141 12.9989 18.4621 12.9989 19.0141C12.9989 19.5661 12.5509 20.0141 11.9989 20.0141C11.4469 20.0141 10.9989 19.5661 10.9989 19.0141C10.9989 18.4621 11.4469 18.0141 11.9989 18.0141Z" fill="black"/>
</svg>
