<svg width="24" height="24" viewBox="0 0 24 24" fill="none" xmlns="http://www.w3.org/2000/svg">
<path d="M9.00057 1.95312C8.55897 1.95312 8.15866 2.24912 8.03176 2.67212L5.03176 12.6721C4.83936 13.3131 5.33066 13.9531 6.00056 13.9531H9.87557L9.00057 20.8281C8.86967 21.8751 10.2586 22.3931 10.8446 21.5161L18.8446 9.51611C19.2876 8.85111 18.7996 7.95312 18.0006 7.95312H13.3756L14.9386 3.26611C15.1536 2.61811 14.6836 1.95312 14.0006 1.95312C13.3756 1.95312 9.62557 1.95312 9.00057 1.95312ZM9.75057 3.95312C10.5686 3.95312 11.5496 3.95312 12.6256 3.95312L11.0626 8.64111C10.8476 9.28811 11.3176 9.95312 12.0006 9.95312H16.1256L11.5316 16.8281L12.0006 13.0781C12.0756 12.4811 11.6016 11.9531 11.0006 11.9531H7.34437L9.75057 3.95312Z" fill="black"/>
</svg>
