<svg width="22" height="22" viewBox="0 0 22 22" fill="none" xmlns="http://www.w3.org/2000/svg">
<path fill-rule="evenodd" clip-rule="evenodd" d="M14.1758 11.2459L19.9377 6.30689V15.7731L14.1758 11.2459ZM8.88885 12.1582L10.5526 13.5848C10.8104 13.8055 11.1899 13.8055 11.4477 13.5848L13.1115 12.1582L18.637 16.5005H3.36199L8.88885 12.1582ZM11.0002 12.1575L3.23342 5.50038H18.7669L11.0002 12.1575ZM2.0626 6.30756L7.82458 11.2459L2.0626 15.7731V6.30756ZM21.3128 17.1881V4.81299C21.3128 4.42799 20.956 4.12549 20.6253 4.12549H1.37513C1.02725 4.12549 0.687622 4.42387 0.687622 4.81299V17.1881C0.687622 17.549 1.01556 17.8756 1.37513 17.8756H20.6253C21.0117 17.8756 21.3128 17.5339 21.3128 17.1881V17.1881Z" fill="black"/>
</svg>
