<svg width="24" height="24" viewBox="0 0 24 24" fill="none" xmlns="http://www.w3.org/2000/svg">
<path d="M15.4989 2.92969C13.0136 2.92969 10.9989 4.94469 10.9989 7.42969C10.9989 9.91469 13.0136 11.9297 15.4989 11.9297C17.9842 11.9297 19.9989 9.91469 19.9989 7.42969C19.9989 4.94469 17.9842 2.92969 15.4989 2.92969ZM7.9989 3.92969C5.7898 3.92969 3.9989 5.72069 3.9989 7.92969C3.9989 10.1387 5.7898 11.9297 7.9989 11.9297C8.8283 11.9297 9.6139 11.6767 10.2801 11.2107C10.7328 10.8947 10.8465 10.2577 10.5301 9.80469C10.2137 9.35169 9.6078 9.26969 9.1551 9.58569C8.8222 9.81869 8.4151 9.92969 7.9989 9.92969C6.8943 9.92969 5.9989 9.03469 5.9989 7.92969C5.9989 6.82469 6.8943 5.92969 7.9989 5.92969C8.3251 5.92969 8.6235 6.00168 8.9051 6.14868C9.3951 6.40368 10.0253 6.2317 10.2801 5.7417C10.535 5.2527 10.3326 4.62168 9.8427 4.36768C9.2776 4.07368 8.6483 3.92969 7.9989 3.92969ZM15.4989 4.92969C16.8796 4.92969 17.9989 6.04869 17.9989 7.42969C17.9989 8.81069 16.8796 9.92969 15.4989 9.92969C14.1182 9.92969 12.9989 8.81069 12.9989 7.42969C12.9989 6.04869 14.1182 4.92969 15.4989 4.92969ZM5.0614 13.2737C3.2273 14.0307 1.9989 15.8857 1.9989 17.9297V19.9297C1.9989 20.4817 2.4466 20.9297 2.9989 20.9297H6.9989C7.5512 20.9297 7.9989 20.4817 7.9989 19.9297C7.9989 19.3777 7.5512 18.9297 6.9989 18.9297H3.9989V17.9297C3.9989 16.8057 4.6656 15.7737 5.4319 15.3197C6.1526 15.6237 6.915 15.8537 7.593 15.9107C8.1434 15.9577 8.6397 15.5427 8.6864 14.9917C8.7331 14.4417 8.3354 13.9757 7.7851 13.9287C7.3461 13.8917 6.8663 13.7597 6.3114 13.5237C6.1774 13.4667 6.0996 13.4217 5.8427 13.3047C5.5908 13.1897 5.3172 13.1677 5.0614 13.2737ZM12.0614 13.2737C10.2273 14.0307 8.9989 15.8857 8.9989 17.9297V19.9297C8.9989 20.4817 9.4466 20.9297 9.9989 20.9297H20.9989C21.5512 20.9297 21.9989 20.4817 21.9989 19.9297V17.9297C21.9989 15.9337 20.7637 14.1237 18.9364 13.3357C18.6792 13.2247 18.3795 13.2217 18.1239 13.3357C17.2391 13.7327 16.3771 13.9297 15.4989 13.9297C14.6237 13.9297 13.7587 13.7217 12.8427 13.3047C12.5908 13.1897 12.3172 13.1677 12.0614 13.2737ZM12.4459 15.3197C13.3907 15.6777 14.5298 15.9297 15.4989 15.9297C16.4604 15.9297 17.5524 15.6947 18.4781 15.3527C19.3807 15.8667 19.9989 16.8287 19.9989 17.9297V18.9297H10.9989V17.9297C10.9989 16.7647 11.6548 15.7827 12.4459 15.3197Z" fill="black"/>
</svg>
