<svg width="21" height="20" viewBox="0 0 21 20" fill="none" xmlns="http://www.w3.org/2000/svg">
<g clip-path="url(#clip0_1_1128)">
<path d="M18.9189 5.9275C19.7322 5.35 20.4164 4.62917 20.9739 3.79917V3.79833C20.2297 4.12417 19.4381 4.34083 18.6114 4.44583C19.4614 3.93833 20.1106 3.14083 20.4156 2.18C19.6231 2.6525 18.7481 2.98583 17.8156 3.1725C17.0631 2.37083 15.9906 1.875 14.8206 1.875C12.5506 1.875 10.7231 3.7175 10.7231 5.97583C10.7231 6.30083 10.7506 6.61333 10.8181 6.91083C7.40974 6.74417 4.39307 5.11083 2.36641 2.62167C2.01307 3.23583 1.80474 3.93833 1.80474 4.69417C1.80474 6.11417 2.53557 7.3725 3.62641 8.10167C2.96724 8.08917 2.32141 7.8975 1.77391 7.59667V7.64167C1.77391 9.63417 3.19474 11.2892 5.05891 11.6708C4.72474 11.7625 4.36141 11.8058 3.98391 11.8058C3.72141 11.8058 3.45641 11.7908 3.20807 11.7358C3.73891 13.3592 5.24724 14.5533 7.03891 14.5925C5.64391 15.6833 3.87224 16.3408 1.95474 16.3408C1.61891 16.3408 1.29641 16.3258 0.973907 16.285C2.79057 17.4558 4.94224 18.125 7.26391 18.125C14.4997 18.125 19.2156 12.0883 18.9189 5.9275Z" fill="black"/>
</g>
<defs>
<clipPath id="clip0_1_1128">
<rect width="20" height="20" fill="white" transform="translate(0.973938)"/>
</clipPath>
</defs>
</svg>
