<svg width="24" height="24" viewBox="0 0 24 24" fill="none" xmlns="http://www.w3.org/2000/svg">
<path d="M5.45971 2.92969C4.08972 2.92969 2.99072 4.02868 2.99072 5.39868V8.46069C2.99072 9.83069 4.08972 10.9297 5.45971 10.9297H8.52172C9.89172 10.9297 10.9907 9.83069 10.9907 8.46069V5.39868C10.9907 4.02868 9.89172 2.92969 8.52172 2.92969H5.45971ZM14.9907 2.92969C13.8857 2.92969 12.9907 3.82469 12.9907 4.92969V8.92969C12.9907 10.0347 13.8857 10.9297 14.9907 10.9297H18.9907C20.0957 10.9297 20.9907 10.0347 20.9907 8.92969V4.92969C20.9907 3.82469 20.0957 2.92969 18.9907 2.92969H14.9907ZM14.9907 4.92969H18.9907V8.92969H14.9907V4.92969ZM8.14672 5.58569C8.34272 5.38969 8.63871 5.38969 8.83471 5.58569C9.03071 5.78269 9.03071 6.07768 8.83471 6.27368L6.83471 8.27368C6.63871 8.46968 6.34272 8.46968 6.14672 8.27368L5.14672 7.27368C4.95073 7.07668 4.95073 6.78169 5.14672 6.58569C5.34272 6.38969 5.63871 6.38969 5.83471 6.58569L6.49072 7.2417L8.14672 5.58569ZM4.99072 12.9297C3.88572 12.9297 2.99072 13.8247 2.99072 14.9297V18.9297C2.99072 20.0347 3.88572 20.9297 4.99072 20.9297H8.99071C10.0957 20.9297 10.9907 20.0347 10.9907 18.9297V14.9297C10.9907 13.8247 10.0957 12.9297 8.99071 12.9297H4.99072ZM14.9907 12.9297C13.8857 12.9297 12.9907 13.8247 12.9907 14.9297V18.9297C12.9907 20.0347 13.8857 20.9297 14.9907 20.9297H18.9907C20.0957 20.9297 20.9907 20.0347 20.9907 18.9297V14.9297C20.9907 13.8247 20.0957 12.9297 18.9907 12.9297H14.9907ZM4.99072 14.9297H8.99071V18.9297H4.99072V14.9297ZM14.9907 14.9297H18.9907V18.9297H14.9907V14.9297Z" fill="black"/>
</svg>
