<svg width="24" height="24" viewBox="0 0 24 24" fill="none" xmlns="http://www.w3.org/2000/svg">
<path d="M16.5525 2.4429C15.7458 2.4179 14.9042 2.70692 14.2602 3.35092L13.1247 4.49392C10.9557 4.36592 9.15945 4.9349 7.74005 5.9429C6.95275 6.5019 6.42355 7.05791 6.14625 7.47391C6.08275 7.56991 6.04905 7.67589 6.02125 7.78689L3.02125 19.7869C2.83825 20.5189 3.50765 21.1879 4.24005 21.0049L16.24 18.0049C16.3512 17.9779 16.4571 17.9439 16.5525 17.8799C16.9674 17.6039 17.5262 17.0729 18.0837 16.2869C19.0926 14.8649 19.6662 13.0729 19.5255 10.9119L20.7123 9.7319C22.0004 8.4439 21.7505 6.38391 20.6691 5.30191L18.6857 3.32992C18.145 2.78992 17.3592 2.4679 16.5525 2.4429ZM16.5212 4.4429C16.8179 4.4529 17.1386 4.58094 17.3166 4.75894L19.2712 6.75491C19.6272 7.11091 19.7433 7.8619 19.3059 8.2999L18.49 9.12991C17.3996 8.03991 15.8959 6.51494 14.9116 5.52994L15.7233 4.72891C15.942 4.50991 16.2246 4.4339 16.5212 4.4429ZM12.9996 6.4899C13.8257 7.3099 16.6697 10.1359 17.527 10.9869C17.6442 12.6679 17.2326 14.0389 16.4587 15.1299C16.2217 15.4649 15.9583 15.7459 15.7087 15.9739C15.6124 16.0619 15.573 16.0899 15.5212 16.1299L7.25975 18.1849L11.472 13.9759C11.6189 14.0109 11.8326 14.0369 11.99 14.0369C13.0946 14.0369 13.99 13.1409 13.99 12.0369C13.99 10.9319 13.0946 10.0369 11.99 10.0369C10.8854 10.0369 9.99005 10.9319 9.99005 12.0369C9.99005 12.1939 10.0226 12.4029 10.057 12.5499L5.83225 16.7909L7.89625 8.50491C7.93655 8.45291 7.96405 8.4149 8.05255 8.3179C8.28155 8.0669 8.56115 7.8059 8.89625 7.5679C9.97785 6.7999 11.341 6.3849 12.9996 6.4899Z" fill="black"/>
</svg>
