<svg width="48" height="48" viewBox="0 0 48 48" fill="none" xmlns="http://www.w3.org/2000/svg">
<path d="M37.2929 25.3707C37.2929 21.415 39.4228 17.9642 42.5826 16.1366C40.9326 14.0815 38.4507 12.2396 35.7148 11.6992C31.984 10.9614 29.8558 12.1899 28.4791 12.6823C27.1024 13.1748 25.2738 13.6174 25.2738 13.6174C25.2738 13.6174 23.4469 13.1748 22.0684 12.6823C20.6935 12.1899 18.5653 10.9596 14.8345 11.6974C11.1037 12.4352 7.84583 15.5944 6.52166 18.4105C3.9679 23.8453 5.01883 30.6828 6.82293 35.6003C8.62527 40.5195 13.3912 47.3926 17.087 47.9455C19.7161 48.3384 21.3433 46.4948 25.2738 46.0272C29.2043 46.4948 30.8314 48.3384 33.4605 47.9455C37.1563 47.3926 41.9223 40.5195 43.7246 35.6003C43.7684 35.4794 43.814 35.3549 43.8577 35.2305C40.0096 33.6624 37.2929 29.8383 37.2929 25.3707ZM24.3402 10.7996C24.3402 10.7996 27.9957 11.2921 31.3149 7.46617C34.6341 3.64029 33.69 0.0206411 33.69 0.0206411C33.69 0.0206411 30.0345 -0.471817 26.7153 3.35406C23.3961 7.17994 24.3402 10.7996 24.3402 10.7996Z" fill="white"/>
</svg>
