<svg width="48" height="48" viewBox="0 0 48 48" fill="none" xmlns="http://www.w3.org/2000/svg">
<path d="M7.81439 4.02688C8.55702 3.93046 9.31008 4.09519 9.94464 4.49287L31.58 16.7918L26.1046 22.3337L7.81439 4.02688ZM6.15012 5.69114C6.04579 6.05347 5.99532 6.42918 6.00034 6.80619V41.1898C5.99532 41.5668 6.04579 41.9425 6.15012 42.3049L24.457 23.998L6.15012 5.69114ZM26.1212 25.6623L7.81439 43.9691C8.55737 44.0743 9.31341 43.9089 9.94464 43.5031L31.58 31.2042L26.1212 25.6623ZM40.3007 21.7679L33.7436 18.04L27.7522 23.998L33.7269 29.9727L40.2841 26.2448C42.4476 25.0132 42.4476 22.9828 40.2841 21.7513L40.3007 21.7679Z" fill="white"/>
</svg>
