<?xml version="1.0" encoding="utf-8"?>
<!-- Generator: Adobe Illustrator 26.3.0, SVG Export Plug-In . SVG Version: 6.00 Build 0)  -->
<svg version="1.1" id="Layer_1" xmlns="http://www.w3.org/2000/svg" xmlns:xlink="http://www.w3.org/1999/xlink" x="0px" y="0px"
	 viewBox="0 0 82.43 82.43" style="enable-background:new 0 0 82.43 82.43;" xml:space="preserve">
<style type="text/css">
	.st0{fill:#05796B;}
</style>
<g>
	<path class="st0" d="M69.5,12.93c3.9,3.9,3.9,10.24,0,14.14L27.07,69.5c-3.9,3.9-10.24,3.9-14.14,0s-3.9-10.24,0-14.14l42.43-42.43
		C59.25,9.03,65.6,9.03,69.5,12.93 M76.57,5.86c-7.81-7.81-20.47-7.81-28.28,0L5.86,48.28c-7.81,7.81-7.81,20.47,0,28.28
		s20.47,7.81,28.28,0l42.43-42.43C84.38,26.33,84.38,13.67,76.57,5.86L76.57,5.86z"/>
	<path class="st0" d="M69.5,69.5c-3.9,3.9-10.24,3.9-14.14,0L12.93,27.07c-3.9-3.9-3.9-10.24,0-14.14s10.24-3.9,14.14,0L69.5,55.36
		C73.4,59.25,73.4,65.6,69.5,69.5 M76.57,76.57c7.81-7.81,7.81-20.47,0-28.28L34.14,5.86c-7.81-7.81-20.47-7.81-28.28,0
		s-7.81,20.47,0,28.28l42.43,42.43C56.09,84.38,68.76,84.38,76.57,76.57L76.57,76.57z"/>
</g>
</svg>
