<svg width="272" height="150" viewBox="0 0 272 150" fill="none" xmlns="http://www.w3.org/2000/svg">
<rect width="272" height="150" fill="white"/>
<path d="M19.6629 30.7615L19.6629 20.8175L15.8309 20.8175L15.8309 19.2415L25.1669 19.2415L25.1669 20.8175L21.3349 20.8175L21.3349 30.7615L19.6629 30.7615ZM28.9179 31.0015C28.0539 31.0015 27.3046 30.8068 26.6699 30.4175C26.0352 30.0281 25.5446 29.4921 25.1979 28.8095C24.8566 28.1215 24.6859 27.3295 24.6859 26.4335C24.6859 25.5321 24.8619 24.7401 25.2139 24.0575C25.5659 23.3695 26.0592 22.8361 26.6939 22.4575C27.3286 22.0735 28.0699 21.8815 28.9179 21.8815C29.7819 21.8815 30.5312 22.0761 31.1659 22.4655C31.8006 22.8548 32.2912 23.3908 32.6379 24.0735C32.9846 24.7561 33.1579 25.5428 33.1579 26.4335C33.1579 27.3348 32.9819 28.1295 32.6299 28.8175C32.2832 29.5001 31.7926 30.0361 31.1579 30.4255C30.5232 30.8095 29.7766 31.0015 28.9179 31.0015ZM28.9179 29.4255C29.7446 29.4255 30.3606 29.1481 30.7659 28.5935C31.1766 28.0335 31.3819 27.3135 31.3819 26.4335C31.3819 25.5321 31.1739 24.8121 30.7579 24.2735C30.3472 23.7295 29.7339 23.4575 28.9179 23.4575C28.3579 23.4575 27.8966 23.5855 27.5339 23.8415C27.1712 24.0921 26.9019 24.4415 26.7259 24.8895C26.5499 25.3321 26.4619 25.8468 26.4619 26.4335C26.4619 27.3401 26.6699 28.0655 27.0859 28.6095C27.5019 29.1535 28.1126 29.4255 28.9179 29.4255ZM39.8599 30.7615C39.3159 30.8681 38.7826 30.9135 38.2599 30.8975C37.7372 30.8815 37.2706 30.7801 36.8599 30.5935C36.4492 30.4068 36.1399 30.1135 35.9319 29.7135C35.7452 29.3561 35.6439 28.9935 35.6279 28.6255C35.6172 28.2521 35.6119 27.8308 35.6119 27.3615L35.6119 19.7215L37.2919 19.7215L37.2919 27.2815C37.2919 27.6281 37.2946 27.9295 37.2999 28.1855C37.3106 28.4415 37.3666 28.6575 37.4679 28.8335C37.6599 29.1641 37.9639 29.3535 38.3799 29.4015C38.8012 29.4441 39.2946 29.4255 39.8599 29.3455L39.8599 30.7615ZM33.9559 23.4655L33.9559 22.1215L39.8599 22.1215L39.8599 23.4655L33.9559 23.4655ZM44.1215 31.0015C43.4815 31.0015 42.9455 30.8841 42.5135 30.6495C42.0815 30.4095 41.7535 30.0948 41.5295 29.7055C41.3109 29.3108 41.2015 28.8788 41.2015 28.4095C41.2015 27.9721 41.2789 27.5881 41.4335 27.2575C41.5882 26.9268 41.8175 26.6468 42.1215 26.4175C42.4255 26.1828 42.7989 25.9935 43.2415 25.8495C43.6255 25.7375 44.0602 25.6388 44.5455 25.5535C45.0309 25.4681 45.5402 25.3881 46.0735 25.3135C46.6122 25.2388 47.1455 25.1641 47.6735 25.0895L47.0655 25.4255C47.0762 24.7481 46.9322 24.2468 46.6335 23.9215C46.3402 23.5908 45.8335 23.4255 45.1135 23.4255C44.6602 23.4255 44.2442 23.5321 43.8655 23.7455C43.4869 23.9535 43.2229 24.3001 43.0735 24.7855L41.5135 24.3055C41.7269 23.5641 42.1322 22.9748 42.7295 22.5375C43.3322 22.1001 44.1322 21.8815 45.1295 21.8815C45.9029 21.8815 46.5749 22.0148 47.1455 22.2815C47.7215 22.5428 48.1429 22.9588 48.4095 23.5295C48.5482 23.8121 48.6335 24.1108 48.6655 24.4255C48.6975 24.7401 48.7135 25.0788 48.7135 25.4415L48.7135 30.7615L47.2335 30.7615L47.2335 28.7855L47.5215 29.0415C47.1642 29.7028 46.7082 30.1961 46.1535 30.5215C45.6042 30.8415 44.9269 31.0015 44.1215 31.0015ZM44.4175 29.6335C44.8922 29.6335 45.3002 29.5508 45.6415 29.3855C45.9829 29.2148 46.2575 28.9988 46.4655 28.7375C46.6735 28.4761 46.8095 28.2041 46.8735 27.9215C46.9642 27.6655 47.0149 27.3775 47.0255 27.0575C47.0415 26.7375 47.0495 26.4815 47.0495 26.2895L47.5935 26.4895C47.0655 26.5695 46.5855 26.6415 46.1535 26.7055C45.7215 26.7695 45.3295 26.8335 44.9775 26.8975C44.6309 26.9561 44.3215 27.0281 44.0495 27.1135C43.8202 27.1935 43.6149 27.2895 43.4335 27.4015C43.2575 27.5135 43.1162 27.6495 43.0095 27.8095C42.9082 27.9695 42.8575 28.1641 42.8575 28.3935C42.8575 28.6175 42.9135 28.8255 43.0255 29.0175C43.1375 29.2041 43.3082 29.3535 43.5375 29.4655C43.7669 29.5775 44.0602 29.6335 44.4175 29.6335ZM50.9509 30.7615L50.9509 19.0015L52.6229 19.0015L52.6229 30.7615L50.9509 30.7615ZM58.2284 30.7615L58.2284 19.2415L62.7564 19.2415C63.4871 19.2415 64.1004 19.3908 64.5964 19.6895C65.0924 19.9881 65.4657 20.3748 65.7164 20.8495C65.9671 21.3188 66.0924 21.8148 66.0924 22.3375C66.0924 22.9721 65.9351 23.5161 65.6204 23.9695C65.3111 24.4228 64.8924 24.7321 64.3644 24.8975L64.3484 24.5055C65.0844 24.6868 65.6497 25.0415 66.0444 25.5695C66.4391 26.0921 66.6364 26.7028 66.6364 27.4015C66.6364 28.0788 66.5004 28.6681 66.2284 29.1695C65.9617 29.6708 65.5697 30.0628 65.0524 30.3455C64.5404 30.6228 63.9191 30.7615 63.1884 30.7615L58.2284 30.7615ZM59.9244 29.1695L62.9324 29.1695C63.3111 29.1695 63.6497 29.0975 63.9484 28.9535C64.2524 28.8095 64.4897 28.6041 64.6604 28.3375C64.8364 28.0655 64.9244 27.7428 64.9244 27.3695C64.9244 27.0228 64.8471 26.7108 64.6924 26.4335C64.5431 26.1508 64.3244 25.9295 64.0364 25.7695C63.7537 25.6041 63.4204 25.5215 63.0364 25.5215L59.9244 25.5215L59.9244 29.1695ZM59.9244 23.9455L62.7324 23.9455C63.0417 23.9455 63.3191 23.8841 63.5644 23.7615C63.8151 23.6335 64.0124 23.4521 64.1564 23.2175C64.3057 22.9775 64.3804 22.6895 64.3804 22.3535C64.3804 21.9055 64.2311 21.5375 63.9324 21.2495C63.6337 20.9615 63.2337 20.8175 62.7324 20.8175L59.9244 20.8175L59.9244 23.9455ZM70.6684 31.0015C70.0284 31.0015 69.4924 30.8841 69.0604 30.6495C68.6284 30.4095 68.3004 30.0948 68.0764 29.7055C67.8577 29.3108 67.7484 28.8788 67.7484 28.4095C67.7484 27.9721 67.8257 27.5881 67.9804 27.2575C68.1351 26.9268 68.3644 26.6468 68.6684 26.4175C68.9724 26.1828 69.3457 25.9935 69.7884 25.8495C70.1724 25.7375 70.6071 25.6388 71.0924 25.5535C71.5777 25.4681 72.0871 25.3881 72.6204 25.3135C73.1591 25.2388 73.6924 25.1641 74.2204 25.0895L73.6124 25.4255C73.6231 24.7481 73.4791 24.2468 73.1804 23.9215C72.8871 23.5908 72.3804 23.4255 71.6604 23.4255C71.2071 23.4255 70.7911 23.5321 70.4124 23.7455C70.0337 23.9535 69.7697 24.3001 69.6204 24.7855L68.0604 24.3055C68.2737 23.5641 68.6791 22.9748 69.2764 22.5375C69.8791 22.1001 70.6791 21.8815 71.6764 21.8815C72.4497 21.8815 73.1217 22.0148 73.6924 22.2815C74.2684 22.5428 74.6897 22.9588 74.9564 23.5295C75.0951 23.8121 75.1804 24.1108 75.2124 24.4255C75.2444 24.7401 75.2604 25.0788 75.2604 25.4415L75.2604 30.7615L73.7804 30.7615L73.7804 28.7855L74.0684 29.0415C73.7111 29.7028 73.2551 30.1961 72.7004 30.5215C72.1511 30.8415 71.4737 31.0015 70.6684 31.0015ZM70.9644 29.6335C71.4391 29.6335 71.8471 29.5508 72.1884 29.3855C72.5297 29.2148 72.8044 28.9988 73.0124 28.7375C73.2204 28.4761 73.3564 28.2041 73.4204 27.9215C73.5111 27.6655 73.5617 27.3775 73.5724 27.0575C73.5884 26.7375 73.5964 26.4815 73.5964 26.2895L74.1404 26.4895C73.6124 26.5695 73.1324 26.6415 72.7004 26.7055C72.2684 26.7695 71.8764 26.8335 71.5244 26.8975C71.1777 26.9561 70.8684 27.0281 70.5964 27.1135C70.3671 27.1935 70.1617 27.2895 69.9804 27.4015C69.8044 27.5135 69.6631 27.6495 69.5564 27.8095C69.4551 27.9695 69.4044 28.1641 69.4044 28.3935C69.4044 28.6175 69.4604 28.8255 69.5724 29.0175C69.6844 29.2041 69.8551 29.3535 70.0844 29.4655C70.3137 29.5775 70.6071 29.6335 70.9644 29.6335ZM77.4978 30.7615L77.4978 19.0015L79.1698 19.0015L79.1698 30.7615L77.4978 30.7615ZM84.0122 31.0015C83.3722 31.0015 82.8362 30.8841 82.4042 30.6495C81.9722 30.4095 81.6442 30.0948 81.4202 29.7055C81.2015 29.3108 81.0922 28.8788 81.0922 28.4095C81.0922 27.9721 81.1695 27.5881 81.3242 27.2575C81.4788 26.9268 81.7082 26.6468 82.0122 26.4175C82.3162 26.1828 82.6895 25.9935 83.1322 25.8495C83.5162 25.7375 83.9508 25.6388 84.4362 25.5535C84.9215 25.4681 85.4308 25.3881 85.9642 25.3135C86.5028 25.2388 87.0362 25.1641 87.5642 25.0895L86.9562 25.4255C86.9668 24.7481 86.8228 24.2468 86.5242 23.9215C86.2308 23.5908 85.7242 23.4255 85.0042 23.4255C84.5508 23.4255 84.1348 23.5321 83.7562 23.7455C83.3775 23.9535 83.1135 24.3001 82.9642 24.7855L81.4042 24.3055C81.6175 23.5641 82.0228 22.9748 82.6202 22.5375C83.2228 22.1001 84.0228 21.8815 85.0202 21.8815C85.7935 21.8815 86.4655 22.0148 87.0362 22.2815C87.6122 22.5428 88.0335 22.9588 88.3002 23.5295C88.4388 23.8121 88.5242 24.1108 88.5562 24.4255C88.5882 24.7401 88.6042 25.0788 88.6042 25.4415L88.6042 30.7615L87.1242 30.7615L87.1242 28.7855L87.4122 29.0415C87.0548 29.7028 86.5988 30.1961 86.0442 30.5215C85.4948 30.8415 84.8175 31.0015 84.0122 31.0015ZM84.3082 29.6335C84.7828 29.6335 85.1908 29.5508 85.5322 29.3855C85.8735 29.2148 86.1482 28.9988 86.3562 28.7375C86.5642 28.4761 86.7002 28.2041 86.7642 27.9215C86.8548 27.6655 86.9055 27.3775 86.9162 27.0575C86.9322 26.7375 86.9402 26.4815 86.9402 26.2895L87.4842 26.4895C86.9562 26.5695 86.4762 26.6415 86.0442 26.7055C85.6122 26.7695 85.2202 26.8335 84.8682 26.8975C84.5215 26.9561 84.2122 27.0281 83.9402 27.1135C83.7108 27.1935 83.5055 27.2895 83.3242 27.4015C83.1482 27.5135 83.0068 27.6495 82.9002 27.8095C82.7988 27.9695 82.7482 28.1641 82.7482 28.3935C82.7482 28.6175 82.8042 28.8255 82.9162 29.0175C83.0282 29.2041 83.1988 29.3535 83.4282 29.4655C83.6575 29.5775 83.9508 29.6335 84.3082 29.6335ZM96.7455 30.7615L96.7455 26.5135C96.7455 26.1775 96.7162 25.8335 96.6575 25.4815C96.6042 25.1241 96.4975 24.7935 96.3375 24.4895C96.1829 24.1855 95.9615 23.9401 95.6735 23.7535C95.3909 23.5668 95.0202 23.4735 94.5615 23.4735C94.2629 23.4735 93.9802 23.5241 93.7135 23.6255C93.4469 23.7215 93.2122 23.8788 93.0095 24.0975C92.8122 24.3161 92.6549 24.6041 92.5375 24.9615C92.4255 25.3188 92.3695 25.7535 92.3695 26.2655L91.3295 25.8735C91.3295 25.0895 91.4762 24.3988 91.7695 23.8015C92.0629 23.1988 92.4842 22.7295 93.0335 22.3935C93.5829 22.0575 94.2469 21.8895 95.0255 21.8895C95.6229 21.8895 96.1242 21.9855 96.5295 22.1775C96.9349 22.3695 97.2629 22.6228 97.5135 22.9375C97.7695 23.2468 97.9642 23.5855 98.0975 23.9535C98.2309 24.3215 98.3215 24.6815 98.3695 25.0335C98.4175 25.3855 98.4415 25.6948 98.4415 25.9615L98.4415 30.7615L96.7455 30.7615ZM90.6735 30.7615L90.6735 22.1215L92.1695 22.1215L92.1695 24.6175L92.3695 24.6175L92.3695 30.7615L90.6735 30.7615ZM104.112 31.0015C103.227 31.0015 102.475 30.8041 101.856 30.4095C101.237 30.0148 100.763 29.4735 100.432 28.7855C100.107 28.0975 99.9412 27.3161 99.9359 26.4415C99.9412 25.5508 100.112 24.7641 100.448 24.0815C100.784 23.3935 101.264 22.8548 101.888 22.4655C102.512 22.0761 103.261 21.8815 104.136 21.8815C105.08 21.8815 105.885 22.1161 106.552 22.5855C107.224 23.0548 107.667 23.6975 107.88 24.5135L106.216 24.9935C106.051 24.5081 105.779 24.1321 105.4 23.8655C105.027 23.5935 104.597 23.4575 104.112 23.4575C103.563 23.4575 103.112 23.5881 102.76 23.8495C102.408 24.1055 102.147 24.4575 101.976 24.9055C101.805 25.3535 101.717 25.8655 101.712 26.4415C101.717 27.3321 101.92 28.0521 102.32 28.6015C102.725 29.1508 103.323 29.4255 104.112 29.4255C104.651 29.4255 105.085 29.3028 105.416 29.0575C105.752 28.8068 106.008 28.4495 106.184 27.9855L107.88 28.3855C107.597 29.2281 107.131 29.8761 106.48 30.3295C105.829 30.7775 105.04 31.0015 104.112 31.0015ZM113.107 31.0015C112.249 31.0015 111.494 30.8148 110.843 30.4415C110.198 30.0628 109.694 29.5375 109.331 28.8655C108.974 28.1881 108.795 27.4041 108.795 26.5135C108.795 25.5695 108.971 24.7508 109.323 24.0575C109.681 23.3641 110.177 22.8281 110.811 22.4495C111.446 22.0708 112.185 21.8815 113.027 21.8815C113.907 21.8815 114.657 22.0868 115.275 22.4975C115.894 22.9028 116.355 23.4815 116.659 24.2335C116.969 24.9855 117.091 25.8788 117.027 26.9135L115.355 26.9135L115.355 26.3055C115.345 25.3028 115.153 24.5615 114.779 24.0815C114.411 23.6015 113.849 23.3615 113.091 23.3615C112.254 23.3615 111.625 23.6255 111.203 24.1535C110.782 24.6815 110.571 25.4441 110.571 26.4415C110.571 27.3908 110.782 28.1268 111.203 28.6495C111.625 29.1668 112.233 29.4255 113.027 29.4255C113.55 29.4255 114.001 29.3081 114.379 29.0735C114.763 28.8335 115.062 28.4921 115.275 28.0495L116.915 28.5695C116.579 29.3428 116.07 29.9428 115.387 30.3695C114.705 30.7908 113.945 31.0015 113.107 31.0015ZM110.027 26.9135L110.027 25.6095L116.195 25.6095L116.195 26.9135L110.027 26.9135Z" fill="black"/>
<path d="M25.2447 52.2548C25.2447 53.0761 24.9834 53.7434 24.4607 54.2568C23.938 54.7608 23.2567 55.0641 22.4167 55.1668L22.4167 56.3988L21.4787 56.3988L21.4787 55.1808C20.6947 55.1248 20.0227 54.9054 19.4627 54.5228C18.9027 54.1401 18.5014 53.6221 18.2587 52.9688L19.9247 52.0028C20.2234 52.7494 20.7414 53.1741 21.4787 53.2768L21.4787 50.8548C21.4694 50.8548 21.4647 50.8548 21.4647 50.8548L21.4367 50.8408C21.11 50.7194 20.844 50.6121 20.6387 50.5188C20.4334 50.4254 20.1907 50.2901 19.9107 50.1128C19.64 49.9354 19.4254 49.7534 19.2667 49.5668C19.1174 49.3708 18.982 49.1234 18.8607 48.8248C18.7487 48.5261 18.6927 48.1994 18.6927 47.8448C18.6927 47.0234 18.9587 46.3654 19.4907 45.8708C20.032 45.3761 20.6947 45.0914 21.4787 45.0168L21.4787 43.7988L22.4167 43.7988L22.4167 45.0448C23.686 45.1941 24.582 45.8521 25.1047 47.0188L23.4807 47.9708C23.2567 47.4108 22.902 47.0701 22.4167 46.9488L22.4167 49.2868C23.2847 49.6321 23.868 49.9074 24.1667 50.1128C24.8854 50.6261 25.2447 51.3401 25.2447 52.2548ZM20.6107 47.8588C20.6107 48.0641 20.676 48.2461 20.8067 48.4048C20.9374 48.5541 21.1614 48.7081 21.4787 48.8668L21.4787 46.9068C21.1987 46.9628 20.984 47.0748 20.8347 47.2428C20.6854 47.4108 20.6107 47.6161 20.6107 47.8588ZM22.4167 53.2488C23.014 53.1181 23.3127 52.7914 23.3127 52.2688C23.3127 52.0354 23.238 51.8394 23.0887 51.6808C22.9487 51.5221 22.7247 51.3728 22.4167 51.2328L22.4167 53.2488ZM33.5163 51.5408L33.5163 53.3328L32.4663 53.3328L32.4663 54.9988L30.5203 54.9988L30.5203 53.3328L25.8863 53.3328L25.8863 51.5408L29.1483 45.1988L31.2203 45.1988L27.9723 51.5408L30.5203 51.5408L30.5203 49.2168L32.4663 49.2168L32.4663 51.5408L33.5163 51.5408ZM36.9194 53.0668L35.8694 56.9588L34.3994 56.9588L34.9594 53.0668L36.9194 53.0668ZM37.9879 54.9988L37.9879 53.5568L41.3339 50.1128C42.0805 49.3288 42.4539 48.6754 42.4539 48.1528C42.4539 47.7701 42.3325 47.4621 42.0899 47.2288C41.8565 46.9954 41.5532 46.8788 41.1799 46.8788C40.4425 46.8788 39.8965 47.2614 39.5419 48.0268L37.9179 47.0748C38.2259 46.4028 38.6692 45.8894 39.2479 45.5348C39.8265 45.1801 40.4612 45.0028 41.1519 45.0028C42.0385 45.0028 42.7992 45.2828 43.4339 45.8428C44.0685 46.3934 44.3859 47.1401 44.3859 48.0828C44.3859 49.1001 43.8492 50.1454 42.7759 51.2188L40.8579 53.1368L44.5399 53.1368L44.5399 54.9988L37.9879 54.9988ZM49.3206 55.1948C48.098 55.1948 47.1366 54.7328 46.4366 53.8088C45.746 52.8754 45.4006 51.6388 45.4006 50.0988C45.4006 48.5588 45.746 47.3268 46.4366 46.4028C47.1366 45.4694 48.098 45.0028 49.3206 45.0028C50.5526 45.0028 51.514 45.4694 52.2046 46.4028C52.8953 47.3268 53.2406 48.5588 53.2406 50.0988C53.2406 51.6388 52.8953 52.8754 52.2046 53.8088C51.514 54.7328 50.5526 55.1948 49.3206 55.1948ZM47.8366 52.4928C48.1726 53.0341 48.6673 53.3048 49.3206 53.3048C49.974 53.3048 50.4686 53.0294 50.8046 52.4788C51.15 51.9281 51.3226 51.1348 51.3226 50.0988C51.3226 49.0534 51.15 48.2554 50.8046 47.7048C50.4686 47.1541 49.974 46.8788 49.3206 46.8788C48.6673 46.8788 48.1726 47.1541 47.8366 47.7048C47.5006 48.2554 47.3326 49.0534 47.3326 50.0988C47.3326 51.1441 47.5006 51.9421 47.8366 52.4928ZM58.139 55.1948C56.9163 55.1948 55.955 54.7328 55.255 53.8088C54.5643 52.8754 54.219 51.6388 54.219 50.0988C54.219 48.5588 54.5643 47.3268 55.255 46.4028C55.955 45.4694 56.9163 45.0028 58.139 45.0028C59.371 45.0028 60.3323 45.4694 61.023 46.4028C61.7137 47.3268 62.059 48.5588 62.059 50.0988C62.059 51.6388 61.7137 52.8754 61.023 53.8088C60.3323 54.7328 59.371 55.1948 58.139 55.1948ZM56.655 52.4928C56.991 53.0341 57.4857 53.3048 58.139 53.3048C58.7923 53.3048 59.287 53.0294 59.623 52.4788C59.9683 51.9281 60.141 51.1348 60.141 50.0988C60.141 49.0534 59.9683 48.2554 59.623 47.7048C59.287 47.1541 58.7923 46.8788 58.139 46.8788C57.4857 46.8788 56.991 47.1541 56.655 47.7048C56.319 48.2554 56.151 49.0534 56.151 50.0988C56.151 51.1441 56.319 51.9421 56.655 52.4928Z" fill="black"/>
<path d="M87.3946 50.1943L89.7606 50.1943L89.7606 51.6223L87.3946 51.6223L87.3946 53.9883L85.9666 53.9883L85.9666 51.6223L83.6006 51.6223L83.6006 50.1943L85.9666 50.1943L85.9666 47.8283L87.3946 47.8283L87.3946 50.1943ZM90.7098 46.9183L93.2858 46.0083L94.6858 46.0083L94.6858 55.8083L93.0758 55.8083L93.0758 47.7303L91.1018 48.2903L90.7098 46.9183ZM102.499 52.5463L103.619 52.5463L103.619 54.0443L102.499 54.0443L102.499 55.8083L100.875 55.8083L100.875 54.0443L96.0588 54.0443L96.0588 52.5463L99.4328 46.0083L101.183 46.0083L97.8088 52.5463L100.875 52.5463L100.875 49.9983L102.499 49.9983L102.499 52.5463ZM107.781 46.4703C108.219 46.909 108.439 47.441 108.439 48.0663C108.439 48.6917 108.219 49.2237 107.781 49.6623C107.351 50.0917 106.81 50.3063 106.157 50.3063C105.494 50.3063 104.948 50.0917 104.519 49.6623C104.08 49.2237 103.861 48.6917 103.861 48.0663C103.861 47.4503 104.08 46.923 104.519 46.4843C104.957 46.0457 105.503 45.8263 106.157 45.8263C106.81 45.8263 107.351 46.041 107.781 46.4703ZM106.143 49.0743C106.441 49.0743 106.684 48.981 106.871 48.7943C107.057 48.5983 107.151 48.3557 107.151 48.0663C107.151 47.777 107.057 47.5343 106.871 47.3383C106.684 47.1423 106.441 47.0443 106.143 47.0443C105.853 47.0443 105.615 47.1423 105.429 47.3383C105.242 47.5343 105.149 47.777 105.149 48.0663C105.149 48.3463 105.242 48.5843 105.429 48.7803C105.625 48.9763 105.863 49.0743 106.143 49.0743ZM105.443 54.8143L104.687 54.3663L111.141 47.1843L111.897 47.6183L105.443 54.8143ZM110.637 55.9763C109.974 55.9763 109.428 55.7617 108.999 55.3323C108.56 54.8937 108.341 54.3617 108.341 53.7363C108.341 53.1203 108.56 52.593 108.999 52.1543C109.437 51.7157 109.983 51.4963 110.637 51.4963C111.281 51.4963 111.822 51.7157 112.261 52.1543C112.699 52.593 112.919 53.1203 112.919 53.7363C112.919 54.3617 112.699 54.8937 112.261 55.3323C111.831 55.7617 111.29 55.9763 110.637 55.9763ZM110.623 54.7443C110.921 54.7443 111.164 54.651 111.351 54.4643C111.537 54.2683 111.631 54.0257 111.631 53.7363C111.631 53.447 111.537 53.2043 111.351 53.0083C111.164 52.8123 110.921 52.7143 110.623 52.7143C110.333 52.7143 110.095 52.8123 109.909 53.0083C109.722 53.2043 109.629 53.447 109.629 53.7363C109.629 54.0163 109.722 54.2543 109.909 54.4503C110.105 54.6463 110.343 54.7443 110.623 54.7443Z" fill="#00E1F0"/>
<path d="M21.9567 67.9672L22.973 67.6082L23.5253 67.6082L23.5253 71.4746L22.8901 71.4746L22.8901 68.2876L22.1113 68.5085L21.9567 67.9672ZM26.7956 70.9996C26.5305 71.3641 26.1586 71.5464 25.6799 71.5464C25.2049 71.5464 24.8311 71.3641 24.5586 70.9996C24.2935 70.635 24.1609 70.149 24.1609 69.5414C24.1609 68.9338 24.2935 68.4477 24.5586 68.0832C24.8311 67.7186 25.2049 67.5364 25.6799 67.5364C26.1586 67.5364 26.5305 67.7186 26.7956 68.0832C27.0644 68.4441 27.1988 68.9301 27.1988 69.5414C27.1988 70.1527 27.0644 70.6387 26.7956 70.9996ZM25.6799 70.9278C25.9671 70.9278 26.1862 70.8081 26.3372 70.5688C26.4881 70.3294 26.5636 69.9869 26.5636 69.5414C26.5636 69.0958 26.4881 68.7534 26.3372 68.514C26.1862 68.2747 25.9671 68.155 25.6799 68.155C25.3963 68.155 25.1772 68.2747 25.0226 68.514C24.8716 68.7534 24.7961 69.0958 24.7961 69.5414C24.7961 69.9869 24.8716 70.3294 25.0226 70.5688C25.1772 70.8081 25.3963 70.9278 25.6799 70.9278ZM28.9491 70.0661L30.2085 71.4746L29.496 71.4746L28.3636 70.1987L28.3636 71.4746L27.7671 71.4746L27.7671 67.6082L28.3636 67.6082L28.3636 69.9336L29.4352 68.7129L30.1643 68.7129L28.9491 70.0661Z" fill="#718EBF"/>
<path d="M28.118 85.5678L28.5599 85.5678L28.5599 86.1588L28.118 86.1588L28.118 86.8547L27.4773 86.8547L27.4773 86.1588L25.5772 86.1588L25.5772 85.5678L26.9084 82.9883L27.5988 82.9883L26.2677 85.5678L27.4773 85.5678L27.4773 84.5625L28.118 84.5625L28.118 85.5678ZM30.1843 85.4462L31.4436 86.8547L30.7311 86.8547L29.5988 85.5788L29.5988 86.8547L29.0022 86.8547L29.0022 82.9883L29.5988 82.9883L29.5988 85.3137L30.6703 84.093L31.3994 84.093L30.1843 85.4462Z" fill="#718EBF"/>
<path d="M26.827 102.235L24.2807 102.235L24.2807 101.738L25.6284 100.362C25.9562 100.034 26.12 99.7509 26.12 99.5115C26.12 99.3274 26.0648 99.182 25.9543 99.0752C25.8438 98.9684 25.7002 98.915 25.5235 98.915C25.1994 98.915 24.9601 99.0752 24.8054 99.3955L24.2697 99.0807C24.3875 98.8266 24.5569 98.6333 24.7778 98.5007C24.9988 98.3645 25.2455 98.2964 25.518 98.2964C25.8604 98.2964 26.1513 98.4032 26.3907 98.6167C26.6337 98.834 26.7552 99.1249 26.7552 99.4894C26.7552 99.8798 26.5361 100.3 26.0979 100.749L25.2252 101.622L26.827 101.622L26.827 102.235ZM28.563 100.826L29.8224 102.235L29.1099 102.235L27.9776 100.959L27.9776 102.235L27.381 102.235L27.381 98.3682L27.9776 98.3682L27.9776 100.694L29.0491 99.4729L29.7782 99.4729L28.563 100.826Z" fill="#718EBF"/>
<path d="M29.3677 117.95C29.1026 118.315 28.7306 118.497 28.2519 118.497C27.7769 118.497 27.4032 118.315 27.1307 117.95C26.8655 117.586 26.733 117.1 26.733 116.492C26.733 115.884 26.8655 115.398 27.1307 115.034C27.4032 114.669 27.7769 114.487 28.2519 114.487C28.7306 114.487 29.1026 114.669 29.3677 115.034C29.6365 115.395 29.7709 115.881 29.7709 116.492C29.7709 117.103 29.6365 117.589 29.3677 117.95ZM28.2519 117.878C28.5392 117.878 28.7583 117.759 28.9092 117.519C29.0602 117.28 29.1357 116.938 29.1357 116.492C29.1357 116.047 29.0602 115.704 28.9092 115.465C28.7583 115.225 28.5392 115.106 28.2519 115.106C27.9684 115.106 27.7493 115.225 27.5946 115.465C27.4437 115.704 27.3682 116.047 27.3682 116.492C27.3682 116.938 27.4437 117.28 27.5946 117.519C27.7493 117.759 27.9684 117.878 28.2519 117.878Z" fill="#718EBF"/>
<path d="M51.4422 128.209C51.0703 128.209 50.7536 128.126 50.4921 127.96C50.2344 127.791 50.0539 127.557 49.9508 127.259L50.4977 126.938C50.6523 127.373 50.9727 127.59 51.4587 127.59C51.6944 127.59 51.873 127.544 51.9945 127.452C52.116 127.36 52.1768 127.237 52.1768 127.082C52.1768 126.927 52.1124 126.808 51.9835 126.723C51.8546 126.638 51.6263 126.546 51.2986 126.447C50.9635 126.347 50.6928 126.23 50.4866 126.093C50.2362 125.917 50.111 125.657 50.111 125.314C50.111 124.972 50.2325 124.701 50.4756 124.503C50.7149 124.3 51.0077 124.199 51.3538 124.199C51.6594 124.199 51.9282 124.274 52.1602 124.425C52.3959 124.572 52.5763 124.781 52.7015 125.049L52.1657 125.359C52.0037 124.998 51.7331 124.817 51.3538 124.817C51.1697 124.817 51.0224 124.862 50.9119 124.95C50.8014 125.035 50.7462 125.151 50.7462 125.298C50.7462 125.441 50.8014 125.556 50.9119 125.64C51.0224 125.721 51.2268 125.808 51.525 125.9C51.7091 125.963 51.8159 125.999 51.8454 126.01C51.8933 126.025 51.989 126.062 52.1326 126.121C52.2504 126.169 52.3443 126.22 52.4143 126.276C52.7015 126.5 52.8341 126.765 52.812 127.071C52.812 127.421 52.685 127.699 52.4309 127.905C52.1842 128.108 51.8546 128.209 51.4422 128.209Z" fill="#718EBF"/>
<path d="M39.1763 113.066C39.1763 111.922 40.1036 110.995 41.2476 110.995L59.4918 110.995C60.6357 110.995 61.5631 111.922 61.5631 113.066L61.5631 120.709L39.1763 120.709L39.1763 113.066Z" fill="#E8F2FF"/>
<path d="M79.1017 124.27L79.781 124.27L79.781 128.137L79.1458 128.137L79.1458 125.38L77.9693 127.325L77.892 127.325L76.7155 125.375L76.7155 128.137L76.0803 128.137L76.0803 124.27L76.7652 124.27L77.9307 126.203L79.1017 124.27Z" fill="#718EBF"/>
<path d="M66.041 108.209C66.041 107.065 66.9684 106.138 68.1123 106.138L86.3565 106.138C87.5005 106.138 88.4278 107.065 88.4278 108.209L88.4278 120.708L66.041 120.708L66.041 108.209Z" fill="#E8F2FF"/>
<path d="M102.884 124.271L105.701 124.271L105.701 124.878L104.612 124.878L104.612 128.137L103.977 128.137L103.977 124.878L102.884 124.878L102.884 124.271Z" fill="#718EBF"/>
<path d="M92.9058 88.782C92.9058 87.6381 93.8331 86.7107 94.9771 86.7107L113.221 86.7107C114.365 86.7107 115.293 87.638 115.293 88.782L115.293 120.709L92.9058 120.709L92.9058 88.782Z" fill="#E8F2FF"/>
<path d="M130.529 128.138L129.795 128.138L128.701 124.272L129.369 124.272L130.181 127.293L131.059 124.272L131.645 124.272L132.518 127.293L133.33 124.272L133.998 124.272L132.904 128.138L132.17 128.138L131.352 125.316L130.529 128.138Z" fill="#718EBF"/>
<path d="M119.77 97.6873C119.77 96.5433 120.697 95.616 121.841 95.616L140.086 95.616C141.229 95.616 142.157 96.5433 142.157 97.6873L142.157 120.71L119.77 120.71L119.77 97.6873Z" fill="#05796B"/>
<path d="M156.612 124.271L159.429 124.271L159.429 124.879L158.34 124.879L158.34 128.138L157.705 128.138L157.705 124.879L156.612 124.879L156.612 124.271Z" fill="#718EBF"/>
<path d="M146.634 75.0205C146.634 73.8766 147.561 72.9492 148.705 72.9492L166.949 72.9492C168.093 72.9492 169.021 73.8766 169.021 75.0205L169.021 120.709L146.634 120.709L146.634 75.0205Z" fill="#05796B"/>
<path d="M187.226 124.272L187.226 124.88L185.597 124.88L185.597 125.962L187.171 125.962L187.171 126.57L185.597 126.57L185.597 128.138L184.962 128.138L184.962 124.272L187.226 124.272Z" fill="#718EBF"/>
<path d="M173.499 113.068C173.499 111.924 174.426 110.996 175.57 110.996L193.814 110.996C194.958 110.996 195.885 111.924 195.885 113.068L195.885 120.71L173.499 120.71L173.499 113.068Z" fill="#E8F2FF"/>
<path d="M212.628 128.209C212.256 128.209 211.94 128.126 211.678 127.96C211.42 127.791 211.24 127.557 211.137 127.259L211.684 126.938C211.838 127.373 212.159 127.59 212.645 127.59C212.88 127.59 213.059 127.544 213.181 127.452C213.302 127.36 213.363 127.237 213.363 127.082C213.363 126.927 213.298 126.808 213.17 126.723C213.041 126.638 212.812 126.546 212.485 126.447C212.15 126.347 211.879 126.23 211.673 126.093C211.422 125.917 211.297 125.657 211.297 125.314C211.297 124.972 211.419 124.701 211.662 124.503C211.901 124.3 212.194 124.199 212.54 124.199C212.845 124.199 213.114 124.274 213.346 124.425C213.582 124.572 213.762 124.781 213.888 125.049L213.352 125.359C213.19 124.998 212.919 124.817 212.54 124.817C212.356 124.817 212.208 124.862 212.098 124.95C211.987 125.035 211.932 125.151 211.932 125.298C211.932 125.441 211.987 125.556 212.098 125.64C212.208 125.721 212.413 125.808 212.711 125.9C212.895 125.963 213.002 125.999 213.031 126.01C213.079 126.025 213.175 126.062 213.319 126.121C213.436 126.169 213.53 126.22 213.6 126.276C213.888 126.5 214.02 126.765 213.998 127.071C213.998 127.421 213.871 127.699 213.617 127.905C213.37 128.108 213.041 128.209 212.628 128.209Z" fill="#718EBF"/>
<path d="M200.362 97.6861C200.362 96.5421 201.29 95.6147 202.434 95.6147L220.678 95.6147C221.822 95.6147 222.749 96.5421 222.749 97.6861L222.749 120.709L200.362 120.709L200.362 97.6861Z" fill="#05796B"/>
<path d="M240.612 128.209C240.24 128.209 239.923 128.126 239.662 127.961C239.404 127.791 239.223 127.557 239.12 127.259L239.667 126.939C239.822 127.373 240.142 127.591 240.628 127.591C240.864 127.591 241.042 127.545 241.164 127.453C241.285 127.36 241.346 127.237 241.346 127.082C241.346 126.928 241.282 126.808 241.153 126.723C241.024 126.639 240.796 126.547 240.468 126.447C240.133 126.348 239.862 126.23 239.656 126.094C239.406 125.917 239.28 125.657 239.28 125.315C239.28 124.972 239.402 124.702 239.645 124.503C239.884 124.3 240.177 124.199 240.523 124.199C240.829 124.199 241.098 124.275 241.33 124.426C241.565 124.573 241.746 124.781 241.871 125.05L241.335 125.359C241.173 124.998 240.903 124.818 240.523 124.818C240.339 124.818 240.192 124.862 240.081 124.95C239.971 125.035 239.916 125.151 239.916 125.298C239.916 125.442 239.971 125.556 240.081 125.641C240.192 125.722 240.396 125.808 240.694 125.9C240.879 125.963 240.985 126 241.015 126.011C241.063 126.026 241.158 126.062 241.302 126.121C241.42 126.169 241.514 126.221 241.584 126.276C241.871 126.501 242.004 126.766 241.981 127.071C241.981 127.421 241.854 127.699 241.6 127.905C241.354 128.108 241.024 128.209 240.612 128.209Z" fill="#718EBF"/>
<path d="M227.226 85.5445C227.226 84.4005 228.153 83.4731 229.297 83.4731L247.542 83.4731C248.686 83.4731 249.613 84.4005 249.613 85.5444L249.613 120.709L227.226 120.709L227.226 85.5445Z" fill="#05796B"/>
</svg>
