<svg width="80" height="80" viewBox="0 0 80 80" fill="none" xmlns="http://www.w3.org/2000/svg">
<path opacity="0.24" d="M6.66669 42.9333V37.0667C6.66669 33.6 9.50002 30.7333 13 30.7333C19.0334 30.7333 21.5 26.4667 18.4667 21.2333C16.7334 18.2333 17.7667 14.3333 20.8 12.6L26.5667 9.29999C29.2 7.73332 32.6 8.66666 34.1667 11.3L34.5334 11.9333C37.5334 17.1667 42.4667 17.1667 45.5 11.9333L45.8667 11.3C47.4334 8.66666 50.8334 7.73332 53.4667 9.29999L59.2334 12.6C62.2667 14.3333 63.3 18.2333 61.5667 21.2333C58.5334 26.4667 61 30.7333 67.0334 30.7333C70.5 30.7333 73.3667 33.5667 73.3667 37.0667V42.9333C73.3667 46.4 70.5334 49.2667 67.0334 49.2667C61 49.2667 58.5334 53.5333 61.5667 58.7667C63.3 61.8 62.2667 65.6667 59.2334 67.4L53.4667 70.7C50.8334 72.2667 47.4334 71.3333 45.8667 68.7L45.5 68.0667C42.5 62.8333 37.5667 62.8333 34.5334 68.0667L34.1667 68.7C32.6 71.3333 29.2 72.2667 26.5667 70.7L20.8 67.4C17.7667 65.6667 16.7334 61.7667 18.4667 58.7667C21.5 53.5333 19.0334 49.2667 13 49.2667C9.50002 49.2667 6.66669 46.4 6.66669 42.9333Z" fill="#05796B"/>
<path d="M40 50.8333C45.9831 50.8333 50.8334 45.983 50.8334 40C50.8334 34.0169 45.9831 29.1666 40 29.1666C34.0169 29.1666 29.1667 34.0169 29.1667 40C29.1667 45.983 34.0169 50.8333 40 50.8333Z" fill="#05796B"/>
</svg>
