<svg width="80" height="80" viewBox="0 0 80 80" fill="none" xmlns="http://www.w3.org/2000/svg">
<path opacity="0.24" d="M40 73.3666C58.4095 73.3666 73.3333 58.4428 73.3333 40.0333C73.3333 21.6238 58.4095 6.69995 40 6.69995C21.5905 6.69995 6.66667 21.6238 6.66667 40.0333C6.66667 58.4428 21.5905 73.3666 40 73.3666Z" fill="#05796B"/>
<path d="M40 23.1333C33.1 23.1333 27.5 28.7333 27.5 35.6333C27.5 42.4 32.8 47.9 39.8333 48.1C39.9333 48.1 40.0667 48.1 40.1333 48.1C40.2 48.1 40.3 48.1 40.3667 48.1C40.4 48.1 40.4333 48.1 40.4333 48.1C47.1667 47.8666 52.4667 42.4 52.5 35.6333C52.5 28.7333 46.9 23.1333 40 23.1333Z" fill="#05796B"/>
<path d="M62.6 64.5334C56.6667 70.0001 48.7333 73.3667 40 73.3667C31.2667 73.3667 23.3333 70.0001 17.4 64.5334C18.2 61.5001 20.3667 58.7334 23.5333 56.6C32.6333 50.5334 47.4333 50.5334 56.4667 56.6C59.6667 58.7334 61.8 61.5001 62.6 64.5334Z" fill="#05796B"/>
</svg>
