<svg aria-hidden="true" style="position: absolute; width: 0; height: 0; overflow: hidden;" version="1.1" xmlns="http://www.w3.org/2000/svg" xmlns:xlink="http://www.w3.org/1999/xlink">
<defs>
<symbol id="icon-briefcase" viewBox="0 0 32 32">
<path d="M14.665 3.988c-2.945 0-5.333 2.388-5.333 5.333h-1.333c-2.945 0-5.333 2.388-5.333 5.333v8c0 2.945 2.388 5.333 5.333 5.333h16c2.945 0 5.333-2.388 5.333-5.333v-8c0-2.945-2.388-5.333-5.333-5.333h-1.333c0-2.945-2.388-5.333-5.333-5.333h-2.667zM14.665 6.654h2.667c1.473 0 2.667 1.193 2.667 2.667h-8c0-1.473 1.194-2.667 2.667-2.667zM7.999 11.988h16c1.473 0 2.667 1.193 2.667 2.667v0.375l-7.125 2.375c-1.913 0.639-5.17 0.639-7.083 0l-7.125-2.375v-0.375c0-1.473 1.194-2.667 2.667-2.667zM5.332 17.821l6.292 2.125c2.461 0.82 6.289 0.82 8.75 0l6.292-2.125v4.833c0 1.473-1.194 2.667-2.667 2.667h-16c-1.473 0-2.667-1.193-2.667-2.667v-4.833z"></path>
</symbol>
<symbol id="icon-gem2" viewBox="0 0 32 32">
<path d="M7.999 3.988c-0.065 0-0.361 0.049-0.459 0.084-0.347 0.121-0.608 0.356-0.749 0.667l-3.879 7.776c0 0-0.237 0.321-0.247 0.811s0.351 0.88 0.351 0.88l11.941 14.627c0.533 0.652 1.549 0.652 2.083 0 0.372-0.455 11.988-14.692 11.988-14.692s0.296-0.376 0.304-0.815c0.009-0.439-0.224-0.749-0.224-0.749l-3.901-7.837c-0.141-0.311-0.403-0.545-0.749-0.667-0.097-0.035-0.392-0.084-0.459-0.084h-16zM9.873 6.656h12.251l-1.875 5.336h-8.5l-1.876-5.336zM7.791 8.74l1.167 3.252h-2.792l1.625-3.252zM24.207 8.74l1.625 3.252h-2.792l1.167-3.252zM6.832 14.658h3.041l2.333 6.587-5.375-6.587zM12.707 14.658h6.584l-3.292 9.339-3.292-9.339zM22.124 14.658h3.041c-1.277 1.561-3.131 3.848-5.375 6.587l2.333-6.587z"></path>
</symbol>
<symbol id="icon-headset" viewBox="0 0 32 32">
<path d="M15.999 2.686c-4.487 0-8.408 2.904-9.913 6.713-1.915 0.231-3.42 1.973-3.42 3.953v5.333c0 2.209 1.791 4 4 4s4-1.791 4-4v-5.333c0-1.415-0.805-2.717-1.912-3.428 1.204-2.613 4.013-4.572 7.245-4.572 3.24 0 5.976 1.877 7.225 4.581-1.131 0.721-1.892 2.024-1.892 3.419v5.333c0 0.848 0.329 1.788 0.824 2.441-0.836 0.983-1.716 1.653-2.745 2.147-0.749-1.199-2.017-1.921-3.412-1.921-2.209 0-4 1.791-4 4s1.791 4 4 4c2.013 0 3.668-1.493 3.948-3.429 1.561-0.587 3.267-1.751 4.464-3.355 0.319 0.080 0.579 0.117 0.921 0.117 2.209 0 4-1.791 4-4v-5.333c0-2-1.509-3.668-3.427-3.964-1.573-3.927-5.445-6.703-9.907-6.703zM6.665 12.019c0.736 0 1.333 0.597 1.333 1.333v5.333c0 0.736-0.597 1.333-1.333 1.333s-1.333-0.597-1.333-1.333v-5.333c0-0.736 0.597-1.333 1.333-1.333zM25.332 12.019c0.736 0 1.333 0.597 1.333 1.333v5.333c0 0.736-0.597 1.333-1.333 1.333s-1.333-0.597-1.333-1.333v-5.333c0-0.736 0.597-1.333 1.333-1.333zM15.999 24.019c0.736 0 1.333 0.597 1.333 1.333s-0.597 1.333-1.333 1.333c-0.736 0-1.333-0.597-1.333-1.333s0.597-1.333 1.333-1.333z"></path>
</symbol>
<symbol id="icon-lighting" viewBox="0 0 32 32">
<path d="M12.001 2.604c-0.589 0-1.123 0.395-1.292 0.959l-4 13.333c-0.257 0.855 0.399 1.708 1.292 1.708h5.167l-1.167 9.167c-0.175 1.396 1.677 2.087 2.459 0.917l10.667-16c0.591-0.887-0.060-2.084-1.125-2.084h-6.167l2.084-6.249c0.287-0.864-0.34-1.751-1.251-1.751-0.833 0-5.833 0-6.667 0zM13.001 5.271c1.091 0 2.399 0 3.833 0l-2.084 6.251c-0.287 0.863 0.34 1.749 1.251 1.749h5.5l-6.125 9.167 0.625-5c0.1-0.796-0.532-1.5-1.333-1.5h-4.875l3.208-10.667z"></path>
</symbol>
<symbol id="icon-linkedin" viewBox="0 0 32 32">
<path d="M31.992 32v-0.001h0.008v-11.736c0-5.741-1.236-10.164-7.948-10.164-3.227 0-5.392 1.771-6.276 3.449h-0.093v-2.913h-6.364v21.364h6.627v-10.579c0-2.785 0.528-5.479 3.977-5.479 3.399 0 3.449 3.179 3.449 5.657v10.401h6.62z"></path>
<path d="M0.528 10.636h6.635v21.364h-6.635v-21.364z"></path>
<path d="M3.843 0c-2.121 0-3.843 1.721-3.843 3.843s1.721 3.879 3.843 3.879c2.121 0 3.843-1.757 3.843-3.879-0.001-2.121-1.723-3.843-3.843-3.843v0z"></path>
</symbol>
<symbol id="icon-message" viewBox="0 0 32 32">
<path d="M20.619 16.358l8.381-7.184v13.769l-8.381-6.585zM12.929 17.685l2.42 2.075c0.375 0.321 0.927 0.321 1.302 0l2.42-2.075 8.037 6.316h-22.218l8.039-6.316zM16 17.684l-11.297-9.683h22.594l-11.297 9.683zM3 9.175l8.381 7.183-8.381 6.585v-13.768zM31 25.001v-18c0-0.56-0.519-1-1-1h-28c-0.506 0-1 0.434-1 1v18c0 0.525 0.477 1 1 1h28c0.562 0 1-0.497 1-1v0z"></path>
</symbol>
<symbol id="icon-messenger" viewBox="0 0 32 32">
<path d="M1.504 14.871c0 4.439 2.215 8.4 5.677 10.987v5.38l5.189-2.847c1.384 0.382 2.851 0.59 4.371 0.59 8.415 0 15.238-6.316 15.238-14.109 0.001-7.793-6.822-14.11-15.237-14.11s-15.238 6.316-15.238 14.109v0zM15.134 10.919l3.975 4.138 7.476-4.138-8.33 8.841-3.879-4.137-7.572 4.138 8.331-8.842z"></path>
</symbol>
<symbol id="icon-people" viewBox="0 0 32 32">
<path d="M20.665 3.906c-3.314 0-6 2.687-6 6s2.686 6 6 6c3.314 0 6-2.687 6-6s-2.686-6-6-6zM10.665 5.24c-2.945 0-5.333 2.388-5.333 5.333s2.388 5.333 5.333 5.333c1.106 0 2.153-0.337 3.042-0.959 0.604-0.421 0.755-1.271 0.333-1.875s-1.23-0.713-1.833-0.292c-0.444 0.311-0.987 0.459-1.542 0.459-1.473 0-2.667-1.193-2.667-2.667s1.194-2.667 2.667-2.667c0.435 0 0.833 0.096 1.208 0.292 0.653 0.34 1.494 0.111 1.833-0.543 0.34-0.652 0.070-1.493-0.583-1.832-0.753-0.392-1.593-0.584-2.458-0.584zM20.665 6.573c1.841 0 3.333 1.492 3.333 3.333s-1.492 3.333-3.333 3.333c-1.841 0-3.333-1.492-3.333-3.333s1.492-3.333 3.333-3.333zM6.749 17.698c-2.445 1.009-4.083 3.483-4.083 6.208v2.667c0 0.736 0.597 1.333 1.333 1.333h5.333c0.736 0 1.333-0.597 1.333-1.333s-0.597-1.333-1.333-1.333h-4v-1.333c0-1.499 0.889-2.875 1.911-3.48 0.961 0.405 1.977 0.712 2.881 0.788 0.734 0.063 1.396-0.491 1.458-1.225 0.062-0.733-0.468-1.355-1.202-1.417-0.585-0.049-1.225-0.225-1.965-0.54-0.179-0.076-0.282-0.136-0.625-0.292-0.336-0.153-0.701-0.183-1.042-0.041zM16.082 17.698c-2.445 1.009-4.083 3.483-4.083 6.208v2.667c0 0.736 0.597 1.333 1.333 1.333h14.667c0.736 0 1.333-0.597 1.333-1.333v-2.667c0-2.661-1.647-5.075-4.083-6.125-0.343-0.148-0.743-0.152-1.083 0-1.18 0.529-2.329 0.792-3.5 0.792-1.167 0-2.32-0.277-3.542-0.833-0.336-0.153-0.701-0.183-1.042-0.041zM16.595 20.426c1.26 0.477 2.779 0.813 4.071 0.813 1.282 0 2.738-0.313 3.972-0.769 1.203 0.685 2.028 1.968 2.028 3.436v1.333h-12v-1.333c0-1.553 0.875-2.863 1.929-3.48z"></path>
</symbol>
<symbol id="icon-phone" viewBox="0 0 32 32">
<path d="M19 29c-1.654 0-3-1.346-3-3s1.346-3 3-3 3 1.346 3 3c0 1.654-1.346 3-3 3zM6 10c1.654 0 3 1.346 3 3s-1.346 3-3 3c-1.654 0-3-1.346-3-3s1.346-3 3-3zM19 21c-2.521 0-4.592 1.883-4.931 4.312l-7.382-7.381c2.43-0.34 4.313-2.41 4.313-4.931 0-2.757-2.243-5-5-5s-5 2.243-5 5c0 1.371 0.557 2.614 1.453 3.518 0.005 0.005 0.007 0.012 0.012 0.018l13 13c0.006 0.005 0.013 0.006 0.018 0.012 0.905 0.896 2.147 1.452 3.517 1.452 2.757 0 5-2.243 5-5s-2.243-5-5-5z"></path>
<path d="M16 1c-0.553 0-1 0.448-1 1s0.447 1 1 1c7.168 0 13 5.832 13 13 0 0.552 0.447 1 1 1s1-0.448 1-1c0-8.271-6.729-15-15-15z"></path>
<path d="M16 6c-0.553 0-1 0.448-1 1s0.447 1 1 1c4.411 0 8 3.589 8 8 0 0.552 0.447 1 1 1s1-0.448 1-1c0-5.514-4.486-10-10-10z"></path>
<path d="M19 16c0 0.552 0.447 1 1 1s1-0.448 1-1c0-2.757-2.243-5-5-5-0.553 0-1 0.448-1 1s0.447 1 1 1c1.654 0 3 1.346 3 3z"></path>
</symbol>
<symbol id="icon-twitter" viewBox="0 0 32 32">
<path d="M28.829 9.794c1.239-0.88 2.282-1.978 3.131-3.243v-0.001c-1.134 0.497-2.34 0.827-3.6 0.987 1.295-0.773 2.285-1.989 2.749-3.453-1.208 0.72-2.541 1.228-3.962 1.512-1.147-1.222-2.781-1.977-4.564-1.977-3.459 0-6.244 2.808-6.244 6.249 0 0.495 0.042 0.971 0.145 1.425-5.194-0.254-9.791-2.743-12.879-6.536-0.538 0.936-0.856 2.006-0.856 3.158 0 2.164 1.114 4.081 2.776 5.192-1.004-0.019-1.989-0.311-2.823-0.77v0.069c0 3.036 2.165 5.558 5.006 6.14-0.509 0.14-1.063 0.206-1.638 0.206-0.4 0-0.804-0.023-1.182-0.107 0.809 2.474 3.107 4.293 5.837 4.353-2.126 1.662-4.825 2.664-7.747 2.664-0.512 0-1.003-0.023-1.495-0.085 2.768 1.784 6.047 2.804 9.585 2.804 11.026 0 18.212-9.199 17.76-18.587z"></path>
</symbol>
<symbol id="icon-twoo" viewBox="0 0 32 32">
<path d="M14.311 22.246c0.081-0.069 0.164-0.14 0.24-0.215-4.243 4.163-11.161 2.22-12.782-3.651v-0.009c-2.175-7.987 6.997-14.055 12.78-8.467 0.121 0.128 8.109 8.648 7.601 8.105h0.023c1.192 1.229 2.917 1.095 3.943 0.020 1.104-1.153 1.143-3.035 0.060-4.207-1.71-1.97-5.069-0.498-4.748 2.422l-1.922-1.958-2.23-2.132c0.46-0.913 1.063-1.712 1.819-2.403-0.081 0.070-0.164 0.142-0.24 0.215 4.259-4.178 11.172-2.189 12.782 3.656v0.008c2.18 7.986-7.002 14.053-12.78 8.466-0.118-0.127-8.102-8.7-7.596-8.156l-0.005-0.019c-0.020 0-0.020-0.019-0.020-0.019-1.252-1.291-2.95-1.097-3.943-0.039-1.105 1.153-1.143 3.035-0.057 4.189 1.636 1.924 5.067 0.498 4.744-2.48 0.124 0.128 4.43 4.549 4.156 4.268-0.697 1.39-1.477 2.029-1.823 2.406z"></path>
</symbol>
<symbol id="icon-ui-checks-grid" viewBox="0 0 32 32">
<path d="M7.28 3.906c-1.827 0-3.292 1.465-3.292 3.292v4.083c0 1.827 1.465 3.292 3.292 3.292h4.083c1.827 0 3.292-1.465 3.292-3.292v-4.083c0-1.827-1.465-3.292-3.292-3.292h-4.083zM19.988 3.906c-1.473 0-2.667 1.193-2.667 2.667v5.333c0 1.473 1.193 2.667 2.667 2.667h5.333c1.473 0 2.667-1.193 2.667-2.667v-5.333c0-1.473-1.193-2.667-2.667-2.667h-5.333zM19.988 6.573h5.333v5.333h-5.333v-5.333zM10.862 7.448c0.261-0.261 0.656-0.261 0.917 0 0.261 0.263 0.261 0.656 0 0.917l-2.667 2.667c-0.261 0.261-0.656 0.261-0.917 0l-1.333-1.333c-0.261-0.263-0.261-0.656 0-0.917s0.656-0.261 0.917 0l0.875 0.875 2.208-2.208zM6.654 17.24c-1.473 0-2.667 1.193-2.667 2.667v5.333c0 1.473 1.193 2.667 2.667 2.667h5.333c1.473 0 2.667-1.193 2.667-2.667v-5.333c0-1.473-1.193-2.667-2.667-2.667h-5.333zM19.988 17.24c-1.473 0-2.667 1.193-2.667 2.667v5.333c0 1.473 1.193 2.667 2.667 2.667h5.333c1.473 0 2.667-1.193 2.667-2.667v-5.333c0-1.473-1.193-2.667-2.667-2.667h-5.333zM6.654 19.906h5.333v5.333h-5.333v-5.333zM19.988 19.906h5.333v5.333h-5.333v-5.333z"></path>
</symbol>
<symbol id="icon-vector-pen" viewBox="0 0 32 32">
<path d="M22.070 3.257c-1.076-0.033-2.198 0.352-3.056 1.211l-1.514 1.524c-2.892-0.171-5.287 0.588-7.18 1.932-1.050 0.745-1.755 1.487-2.125 2.041-0.085 0.128-0.13 0.269-0.167 0.417l-4 16c-0.244 0.976 0.649 1.868 1.625 1.624l16-4c0.148-0.036 0.289-0.081 0.417-0.167 0.553-0.368 1.298-1.076 2.042-2.124 1.345-1.896 2.11-4.285 1.922-7.167l1.582-1.573c1.717-1.717 1.384-4.464-0.058-5.907l-2.645-2.629c-0.721-0.72-1.769-1.149-2.844-1.183zM22.028 5.924c0.396 0.013 0.823 0.184 1.061 0.421l2.606 2.661c0.475 0.475 0.629 1.476 0.046 2.060l-1.088 1.107c-1.454-1.453-3.459-3.487-4.771-4.8l1.082-1.068c0.292-0.292 0.668-0.393 1.064-0.381zM17.333 8.653c1.101 1.093 4.893 4.861 6.037 5.996 0.156 2.241-0.393 4.069-1.424 5.524-0.316 0.447-0.667 0.821-1 1.125-0.128 0.117-0.181 0.155-0.25 0.208l-11.015 2.74 5.616-5.612c0.196 0.047 0.481 0.081 0.691 0.081 1.473 0 2.667-1.195 2.667-2.667 0-1.473-1.194-2.667-2.667-2.667s-2.667 1.193-2.667 2.667c0 0.209 0.043 0.488 0.089 0.684l-5.633 5.655 2.752-11.048c0.054-0.069 0.090-0.12 0.208-0.249 0.305-0.335 0.678-0.683 1.125-1 1.442-1.024 3.26-1.577 5.471-1.437z"></path>
</symbol>
</defs>
</svg>
