<svg width="849" height="752" viewBox="0 0 849 752" fill="none" xmlns="http://www.w3.org/2000/svg">
<path opacity="0.2" d="M1 751C20.1549 629.483 329.481 625.922 345.208 396.898C378.294 -84.9133 1203.27 938.416 1276.83 665.667C1423.69 121.162 2970.79 207.85 3006 121.163M68.3324 336.55C110.512 446.844 246.879 628.888 454.913 474.708C714.956 281.984 855.425 -98.8213 1160.74 25.4047C1466.06 149.631 1803.88 619.832 1966.41 322.618M4.20609 715.949C24.4574 605.471 325.547 610.748 350.432 385.288C394.325 -82.7574 1186.71 873.709 1271.31 619.863C1425.71 107.203 2915.22 212.153 2956.5 115.44M7.41275 680.898C28.7605 581.458 321.614 595.574 355.656 373.678C410.357 -80.6013 1170.14 809.001 1265.78 574.059C1427.72 93.243 2859.65 216.456 2906.99 109.718M10.6188 645.847C33.063 557.446 317.681 580.4 360.88 362.068C426.388 -78.4454 1153.58 744.293 1260.25 528.255C1429.74 79.2832 2804.09 220.758 2857.49 103.996M13.8255 610.797C37.366 533.435 313.748 565.227 366.105 350.459C442.42 -76.2883 1137.02 679.587 1254.72 482.452C1431.76 65.3247 2748.52 225.062 2807.98 98.2749M17.0316 575.746C41.6685 509.422 309.814 550.053 371.328 338.849C458.452 -74.1323 1120.45 614.879 1249.19 436.648C1433.78 51.3651 2692.95 229.365 2758.48 92.5527M20.2377 540.695C45.971 485.41 305.88 534.879 376.552 327.239C474.483 -71.9764 1103.89 550.172 1243.66 390.844C1435.79 37.4054 2637.39 233.668 2708.97 86.8306M23.4443 505.644C50.2741 461.397 301.947 519.705 381.777 315.628C490.515 -69.8204 1087.32 485.464 1238.14 345.04C1437.81 23.4457 2581.82 237.971 2659.47 81.1084M26.6504 470.593C54.5766 437.385 298.014 504.531 387.001 304.018C506.546 -67.6645 1070.76 420.757 1232.61 299.236C1439.83 9.48602 2526.25 242.274 2609.97 75.3862M29.8565 435.542C58.8791 413.373 294.08 489.357 392.224 292.408C522.577 -65.5085 1054.19 356.049 1227.08 253.432C1441.85 -4.47368 2470.68 246.577 2560.46 69.664M33.0632 400.491C63.1822 389.36 290.147 474.182 397.449 280.798C538.609 -63.3525 1037.63 291.342 1221.55 207.628C1443.87 -18.4334 2415.12 250.88 2510.96 63.9418M36.2693 365.441C67.4847 365.349 286.213 459.009 402.673 269.189C554.641 -61.1954 1021.07 226.635 1216.02 161.825C1445.88 -32.3919 2359.55 255.184 2461.45 58.2207M39.4759 330.39C71.7878 341.337 282.28 443.835 407.897 257.579C570.672 -59.0394 1004.5 161.928 1210.5 116.021C1447.9 -46.3516 2303.99 259.487 2411.95 52.4986M42.682 304.003C76.0902 325.988 278.347 437.325 413.121 254.633C586.704 -48.2197 987.938 105.884 1204.97 78.8811C1449.92 -51.6475 2248.42 272.453 2362.44 55.4401M45.8881 295.277C80.3927 328.301 274.413 448.476 418.345 269.349C602.735 -19.7381 971.374 67.5018 1199.44 59.4028C1451.94 -39.2815 2192.85 303.082 2312.94 76.0436M49.0948 290.374C84.6958 334.436 270.48 463.45 423.569 287.886C618.767 12.565 954.81 32.9414 1193.91 43.7459C1453.95 -23.094 2137.28 337.532 2263.44 100.469M52.3008 294.853C88.9983 349.954 266.546 487.806 428.793 315.807C634.798 54.2519 938.246 7.76473 1188.38 37.4729C1455.97 2.47723 2081.72 381.366 2213.93 134.277M55.5069 303.059C93.3008 369.198 262.613 515.889 434.017 347.453C650.83 99.6643 921.682 -13.6864 1182.86 34.9253C1457.99 31.774 2026.15 428.925 2164.43 171.812M58.7136 311.388C97.6039 388.566 258.68 544.095 439.241 379.223C666.861 145.201 905.118 -35.0137 1177.33 32.5016C1460.01 61.1946 1970.58 476.608 2114.92 209.47M61.9197 319.759C101.906 407.976 254.746 572.343 444.465 411.035C682.893 190.778 888.553 -56.2994 1171.8 30.1194C1462.03 90.6568 1915.02 524.333 2065.42 247.169M65.1263 328.149C106.209 427.405 250.813 600.61 449.69 442.866C698.925 236.376 871.99 -77.5656 1166.27 27.7568C1464.04 120.139 1859.45 572.077 2015.92 284.889" stroke="black"/>
</svg>
